# xmcd
# 
# Track frame offsets:
#   150
#   14303
#   33642
#   50663
#   70509
#   88490
#   105691
#   121735
#   139450
#   155234
#   173382
#   189398
#   201061
#   212511
# 
# Disc length: 3043 seconds
# 
# Revision: 2
# Processed by: cddbd v1.5.2PL0 Copyright (c) Steve Scherf et al.
# Submitted via: Synapstar 1.0 
# 
DISCID=c40be10e
DTITLE=Various Artist - SD143
DYEAR=2006
DGENRE=Country
TTITLE0=KENNY CHESNEY - SUMMERTIME
TTITLE1=RASCAL FLATTS - BACKWARDS
TTITLE2=SARA EVANS - COALMINE
TTITLE3=GARTH BROOKS - THAT GIRL IS A COWBOY
TTITLE4=DIXIE CHICKS - NOT READY TO MAKE NICE
TTITLE5=JOSH TURNER - WOULD YOU GO WITH ME
TTITLE6=MIRANDA LAMBERT - NEW STRINGS
TTITLE7=VAN ZANT - THINGS I MISS THE MOST
TTITLE8=JULIE ROBERTS - MEN AND MASCARA
TTITLE9=DIAMOND RIO - GOD ONLY CRIES
TTITLE10=WRECKERS - LEAVE THE PIECES
TTITLE11=JAMEY JOHNSON - REBELICIOUS
TTITLE12=MEGAN MULLINS - AIN'T WHAT IT USED TO BE
TTITLE13=BOMSHEL - COUNTRY MUSIC LOVE SONG
EXTD=MediaType: Karaoke CD+G Producer: StarDisc
EXTT0=
EXTT1=
EXTT2=
EXTT3=
EXTT4=
EXTT5=
EXTT6=
EXTT7=
EXTT8=
EXTT9=
EXTT10=
EXTT11=
EXTT12=
EXTT13=
PLAYORDER=
